<svg width="207" height="212" viewBox="0 0 207 212" fill="none" xmlns="http://www.w3.org/2000/svg">
<path d="M182.429 64.0116C173.641 55.1782 163.42 48.7298 152.549 44.5605C158.885 25.8337 181.348 19.0143 181.348 19.0143C181.348 19.0143 128.935 -8.33387 71.0639 2.56653C51.7649 5.65822 33.2568 17.5656 19.7229 33.2891C12.739 41.3649 7.41989 50.7542 4.07426 60.9124C0.728635 71.0706 -0.576963 81.7954 0.233207 92.4647C1.04338 103.134 3.95319 113.535 8.79385 123.066C13.6345 132.596 20.3097 141.065 28.4321 147.982C33.6875 152.505 45.4286 159.536 45.6395 159.898C37.941 179.561 13.3163 184.941 13.3163 184.941C13.3163 184.941 45.8592 205.399 89.5632 210.708C101.155 212.148 113.467 212.51 126.21 211.149C146.441 209.489 166.601 198.73 181.928 183.589C189.824 175.799 196.105 166.514 200.408 156.269C204.712 146.024 206.952 135.023 206.999 123.903C207.047 112.782 204.9 101.763 200.684 91.4813C196.469 81.1997 190.267 71.8602 182.438 64.0028L182.429 64.0116ZM167.454 170.525C155.062 182.732 136.563 190.488 122.308 191.557C112.228 192.564 101.427 192.705 91.066 191.416C75.8008 189.543 64.7891 185.321 53.9796 181.222C59.4546 175.913 64.9297 168.59 67.1619 162.274C67.8767 160.42 68.2065 158.439 68.1309 156.452C68.0553 154.465 67.576 152.514 66.7225 150.72C61.0731 139.016 59.2432 125.818 61.4934 113.007C63.7437 100.196 69.9593 88.4252 79.2546 79.3728C86.0676 72.6907 94.2928 67.6397 103.318 64.5962C112.342 61.5526 121.934 60.5949 131.378 61.7944C145.438 63.4368 158.533 69.8091 168.535 79.8764C193.01 104.566 192.149 146.339 167.454 170.525Z" fill="#AFB6FF"/>
</svg>
